<?xml version="1.0" encoding="utf-8"?>
<!-- Generator: Adobe Illustrator 27.5.0, SVG Export Plug-In . SVG Version: 6.00 Build 0)  -->
<svg version="1.1" xmlns="http://www.w3.org/2000/svg" xmlns:xlink="http://www.w3.org/1999/xlink" x="0px" y="0px"
	 viewBox="0 0 500 500" style="enable-background:new 0 0 500 500;" xml:space="preserve">
<g id="BACKGROUND">
	<rect style="fill:#F2FCFC;" width="500" height="500"/>
</g>
<g id="OBJECT">
	<path style="fill:#E7F7F7;" d="M0,268.785c0,0,41.872-5.284,74.765-52.555s54.867-141.207,132.45-151.659
		S304.222,180.46,346.52,196.916s89.33-15.441,118.284-9.618S500,229.269,500,229.269V500H0V268.785z"/>
	<path style="fill:none;stroke:#BAD8D8;stroke-width:1.5013;stroke-miterlimit:10;" d="M276.121,66.036
		c-13.352,0.075-26.792,0.159-39.909,2.653c-3.7,0.704-7.449,1.634-10.596,3.704c-4.204,2.766-6.91,7.28-9.083,11.819
		c-1.928,4.026-3.465,9.095-0.825,12.694c1.163,1.586,2.957,2.574,4.738,3.408c10.547,4.94,22.498,6.144,34.135,5.681
		c14.385-0.572,28.967-3.714,41.156-11.375c1.119-0.703,2.263-1.496,2.854-2.678c0.471-0.942,0.536-2.039,0.443-3.088
		c-0.535-6.059-5.999-10.706-11.819-12.475s-12.04-1.331-18.122-1.35c-8.749-0.028-17.618-1.026-26.168,0.831
		c-8.549,1.857-17.023,7.383-19.248,15.844c-0.228,0.866-0.382,1.809-0.046,2.638c0.292,0.721,0.912,1.251,1.531,1.724
		c8.427,6.442,19.821,7.27,30.414,6.715c4.767-0.25,9.599-0.746,14.026-2.531c4.427-1.785,8.454-5.023,10.248-9.446
		c0.219-0.54,0.406-1.124,0.3-1.697c-0.105-0.564-0.481-1.037-0.879-1.451c-3.147-3.277-7.989-4.148-12.5-4.689
		c-5.089-0.611-10.201-1.023-15.322-1.235c-1.607-0.067-3.283-0.1-4.743,0.574c-2.398,1.107-3.579,3.78-4.559,6.233
		c-0.285,0.714-0.575,1.487-0.39,2.232c0.154,0.618,0.613,1.112,1.092,1.532c3.832,3.359,9.414,3.55,14.509,3.566
		c2.923,0.01,6.542-0.43,7.577-3.164c1.068-2.822-1.785-5.777-4.74-6.389c-2.955-0.612-6.008,0.208-9.025,0.135"/>
	<g>
		<path style="fill:#ABCBDE;" d="M475.868,96.498c0-33.742-31.343-61.095-70.006-61.095s-70.006,27.353-70.006,61.095
			c0,26.012,18.636,48.213,44.884,57.026l-35.303,32.105l75.638-29.488l-0.029-0.007C452.406,150.08,475.868,125.687,475.868,96.498
			z"/>
		<path style="fill:#FFFDFF;" d="M473.107,93.639c0-33.742-31.343-61.095-70.006-61.095s-70.006,27.353-70.006,61.095
			c0,26.012,18.636,48.213,44.884,57.026l-35.303,32.105l75.638-29.488l-0.029-0.007
			C449.644,147.221,473.107,122.828,473.107,93.639z"/>
		<g>
			
				<text transform="matrix(1 0 0 1 361.3896 102.2739)" style="fill:#ABCBDE; font-family:'ArchivoRoman-ExtraBold'; font-size:28.8283px;">1 / √½₃</text>
		</g>
	</g>
	<g>
		<rect x="45.784" y="32.954" style="fill:#ABCBDE;" width="149.314" height="191.537"/>
		<rect x="41.371" y="28.931" style="fill:#FFFDFF;" width="149.314" height="191.537"/>
		
			<text transform="matrix(1 0 0 1 54.6115 64.5714)" style="fill:#ABCBDE; font-family:'ArchivoRoman-ExtraBold'; font-size:28.8283px;">EXAM</text>
		
			<line style="fill:none;stroke:#ABCBDE;stroke-width:2.5061;stroke-linecap:round;stroke-linejoin:round;stroke-miterlimit:10;" x1="56.937" y1="77.022" x2="175.575" y2="77.022"/>
		
			<line style="fill:none;stroke:#ABCBDE;stroke-width:2.5061;stroke-linecap:round;stroke-linejoin:round;stroke-miterlimit:10;" x1="56.937" y1="83.957" x2="175.575" y2="83.957"/>
		
			<circle style="fill:none;stroke:#ABCBDE;stroke-width:2.5061;stroke-linecap:round;stroke-linejoin:round;stroke-miterlimit:10;" cx="60.234" cy="93.783" r="3.297"/>
		
			<circle style="fill:none;stroke:#ABCBDE;stroke-width:2.5061;stroke-linecap:round;stroke-linejoin:round;stroke-miterlimit:10;" cx="76.042" cy="93.783" r="3.297"/>
		
			<circle style="fill:none;stroke:#ABCBDE;stroke-width:2.5061;stroke-linecap:round;stroke-linejoin:round;stroke-miterlimit:10;" cx="91.85" cy="93.783" r="3.297"/>
		
			<circle style="fill:none;stroke:#ABCBDE;stroke-width:2.5061;stroke-linecap:round;stroke-linejoin:round;stroke-miterlimit:10;" cx="107.658" cy="93.783" r="3.297"/>
		
			<line style="fill:none;stroke:#ABCBDE;stroke-width:2.5061;stroke-linecap:round;stroke-linejoin:round;stroke-miterlimit:10;" x1="56.937" y1="112.962" x2="175.575" y2="112.962"/>
		
			<line style="fill:none;stroke:#ABCBDE;stroke-width:2.5061;stroke-linecap:round;stroke-linejoin:round;stroke-miterlimit:10;" x1="56.937" y1="119.896" x2="175.575" y2="119.896"/>
		
			<circle style="fill:none;stroke:#ABCBDE;stroke-width:2.5061;stroke-linecap:round;stroke-linejoin:round;stroke-miterlimit:10;" cx="60.234" cy="129.722" r="3.297"/>
		
			<circle style="fill:none;stroke:#ABCBDE;stroke-width:2.5061;stroke-linecap:round;stroke-linejoin:round;stroke-miterlimit:10;" cx="76.042" cy="129.722" r="3.297"/>
		
			<circle style="fill:none;stroke:#ABCBDE;stroke-width:2.5061;stroke-linecap:round;stroke-linejoin:round;stroke-miterlimit:10;" cx="91.85" cy="129.722" r="3.297"/>
		
			<circle style="fill:none;stroke:#ABCBDE;stroke-width:2.5061;stroke-linecap:round;stroke-linejoin:round;stroke-miterlimit:10;" cx="107.658" cy="129.722" r="3.297"/>
		
			<line style="fill:none;stroke:#ABCBDE;stroke-width:2.5061;stroke-linecap:round;stroke-linejoin:round;stroke-miterlimit:10;" x1="56.937" y1="148.901" x2="175.575" y2="148.901"/>
		
			<line style="fill:none;stroke:#ABCBDE;stroke-width:2.5061;stroke-linecap:round;stroke-linejoin:round;stroke-miterlimit:10;" x1="56.937" y1="155.836" x2="175.575" y2="155.836"/>
		
			<circle style="fill:none;stroke:#ABCBDE;stroke-width:2.5061;stroke-linecap:round;stroke-linejoin:round;stroke-miterlimit:10;" cx="60.234" cy="165.662" r="3.297"/>
		
			<circle style="fill:none;stroke:#ABCBDE;stroke-width:2.5061;stroke-linecap:round;stroke-linejoin:round;stroke-miterlimit:10;" cx="76.042" cy="165.662" r="3.297"/>
		
			<circle style="fill:none;stroke:#ABCBDE;stroke-width:2.5061;stroke-linecap:round;stroke-linejoin:round;stroke-miterlimit:10;" cx="91.85" cy="165.662" r="3.297"/>
		
			<circle style="fill:none;stroke:#ABCBDE;stroke-width:2.5061;stroke-linecap:round;stroke-linejoin:round;stroke-miterlimit:10;" cx="107.658" cy="165.662" r="3.297"/>
		
			<line style="fill:none;stroke:#ABCBDE;stroke-width:2.5061;stroke-linecap:round;stroke-linejoin:round;stroke-miterlimit:10;" x1="56.937" y1="184.841" x2="175.575" y2="184.841"/>
		
			<line style="fill:none;stroke:#ABCBDE;stroke-width:2.5061;stroke-linecap:round;stroke-linejoin:round;stroke-miterlimit:10;" x1="56.937" y1="191.775" x2="175.575" y2="191.775"/>
		
			<circle style="fill:none;stroke:#ABCBDE;stroke-width:2.5061;stroke-linecap:round;stroke-linejoin:round;stroke-miterlimit:10;" cx="60.234" cy="201.601" r="3.297"/>
		
			<circle style="fill:none;stroke:#ABCBDE;stroke-width:2.5061;stroke-linecap:round;stroke-linejoin:round;stroke-miterlimit:10;" cx="76.042" cy="201.601" r="3.297"/>
		
			<circle style="fill:none;stroke:#ABCBDE;stroke-width:2.5061;stroke-linecap:round;stroke-linejoin:round;stroke-miterlimit:10;" cx="91.85" cy="201.601" r="3.297"/>
		
			<circle style="fill:none;stroke:#ABCBDE;stroke-width:2.5061;stroke-linecap:round;stroke-linejoin:round;stroke-miterlimit:10;" cx="107.658" cy="201.601" r="3.297"/>
		<polygon style="fill:#E29469;" points="56.937,90.713 58.082,89.918 61.149,92.937 67.302,84.676 61.421,95.082 		"/>
		<polygon style="fill:#E29469;" points="86.668,128.651 87.812,127.856 90.88,130.874 97.032,122.614 91.152,133.019 		"/>
		<polygon style="fill:#E29469;" points="86.668,165.664 87.812,164.87 90.88,167.888 97.032,159.628 91.152,170.033 		"/>
		<polygon style="fill:#E29469;" points="102.065,201.232 103.21,200.437 106.277,203.455 112.43,195.195 106.549,205.6 		"/>
	</g>
	<g>
		<path style="fill:#BAD8D8;" d="M167.468,365.859c0,0-109.327-45.331-103.708-64.437c5.62-19.106,91.942,28.472,119.025,53.573
			C209.867,380.095,167.468,365.859,167.468,365.859z"/>
		<g>
			
				<path style="fill:none;stroke:#FFFFFF;stroke-width:0.9124;stroke-linecap:round;stroke-linejoin:round;stroke-miterlimit:10;" d="
				M72.652,301.968c0,0,58.917,24.045,109.333,58.609"/>
			
				<line style="fill:none;stroke:#FFFFFF;stroke-width:0.9124;stroke-linecap:round;stroke-linejoin:round;stroke-miterlimit:10;" x1="75.24" y1="311.087" x2="92.579" y2="310.762"/>
			
				<line style="fill:none;stroke:#FFFFFF;stroke-width:0.9124;stroke-linecap:round;stroke-linejoin:round;stroke-miterlimit:10;" x1="99.329" y1="327.228" x2="121.607" y2="324.957"/>
			
				<line style="fill:none;stroke:#FFFFFF;stroke-width:0.9124;stroke-linecap:round;stroke-linejoin:round;stroke-miterlimit:10;" x1="132.522" y1="344.594" x2="152.7" y2="342.055"/>
			
				<line style="fill:none;stroke:#FFFFFF;stroke-width:0.9124;stroke-linecap:round;stroke-linejoin:round;stroke-miterlimit:10;" x1="133.311" y1="331.272" x2="132.522" y2="323.166"/>
			
				<line style="fill:none;stroke:#FFFFFF;stroke-width:0.9124;stroke-linecap:round;stroke-linejoin:round;stroke-miterlimit:10;" x1="107.23" y1="317.732" x2="104.231" y2="309.508"/>
			
				<line style="fill:none;stroke:#FFFFFF;stroke-width:0.9124;stroke-linecap:round;stroke-linejoin:round;stroke-miterlimit:10;" x1="164.911" y1="349.436" x2="162.353" y2="340.434"/>
		</g>
		<path style="fill:#D4EFF0;" d="M202.431,361.514c0,0-86.929-121.102-114.449-118.079c-27.52,3.023,65.135,110.262,91.598,126.102
			C215.328,390.935,208.376,369.632,202.431,361.514z"/>
		<g>
			
				<path style="fill:none;stroke:#FFFFFF;stroke-width:0.9124;stroke-linecap:round;stroke-linejoin:round;stroke-miterlimit:10;" d="
				M91.919,249.136c0,0,74.608,75.729,108.729,120.745"/>
			
				<line style="fill:none;stroke:#FFFFFF;stroke-width:0.9124;stroke-linecap:round;stroke-linejoin:round;stroke-miterlimit:10;" x1="147.158" y1="331.587" x2="176.045" y2="340.434"/>
			
				<line style="fill:none;stroke:#FFFFFF;stroke-width:0.9124;stroke-linecap:round;stroke-linejoin:round;stroke-miterlimit:10;" x1="157.442" y1="318.735" x2="129.092" y2="309.508"/>
			
				<line style="fill:none;stroke:#FFFFFF;stroke-width:0.9124;stroke-linecap:round;stroke-linejoin:round;stroke-miterlimit:10;" x1="133.311" y1="292.438" x2="109.903" y2="284.401"/>
			
				<line style="fill:none;stroke:#FFFFFF;stroke-width:0.9124;stroke-linecap:round;stroke-linejoin:round;stroke-miterlimit:10;" x1="109.903" y1="267.267" x2="92.946" y2="262.211"/>
			
				<line style="fill:none;stroke:#FFFFFF;stroke-width:0.9124;stroke-linecap:round;stroke-linejoin:round;stroke-miterlimit:10;" x1="121.607" y1="279.986" x2="117.276" y2="266.968"/>
			
				<line style="fill:none;stroke:#FFFFFF;stroke-width:0.9124;stroke-linecap:round;stroke-linejoin:round;stroke-miterlimit:10;" x1="146.283" y1="306.456" x2="144.853" y2="295.215"/>
			
				<line style="fill:none;stroke:#FFFFFF;stroke-width:0.9124;stroke-linecap:round;stroke-linejoin:round;stroke-miterlimit:10;" x1="167.4" y1="329.906" x2="166.427" y2="318.735"/>
			
				<line style="fill:none;stroke:#FFFFFF;stroke-width:0.9124;stroke-linecap:round;stroke-linejoin:round;stroke-miterlimit:10;" x1="186.107" y1="351.682" x2="184.613" y2="343.137"/>
		</g>
	</g>
	<g>
		<path style="fill:#BAD8D8;" d="M383.967,378.545c0,0,75.274-40.605,94.518-86.272c0,0-24.63,12.267-38.344,17.553
			C426.426,315.113,389.991,346.616,383.967,378.545z"/>
		<g>
			
				<path style="fill:none;stroke:#FFFFFF;stroke-width:0.679;stroke-linecap:round;stroke-linejoin:round;stroke-miterlimit:10;" d="
				M475.065,295.985c0,0-68.679,57.449-96.969,71.467"/>
			
				<path style="fill:none;stroke:#FFFFFF;stroke-width:0.679;stroke-linecap:round;stroke-linejoin:round;stroke-miterlimit:10;" d="
				M451.832,314.91c0,0,6.225-0.956,10.385-2.42"/>
			
				<path style="fill:none;stroke:#FFFFFF;stroke-width:0.679;stroke-linecap:round;stroke-linejoin:round;stroke-miterlimit:10;" d="
				M444.148,321.01c0,0-1.397-5.31,0.168-9.416"/>
			
				<path style="fill:none;stroke:#FFFFFF;stroke-width:0.679;stroke-linecap:round;stroke-linejoin:round;stroke-miterlimit:10;" d="
				M432.367,330.196c0,0,5.466,1.501,12.323,0.22"/>
			
				<path style="fill:none;stroke:#FFFFFF;stroke-width:0.679;stroke-linecap:round;stroke-linejoin:round;stroke-miterlimit:10;" d="
				M423.97,336.602c0,0-1.516-5.722,0.617-11.902"/>
			
				<path style="fill:none;stroke:#FFFFFF;stroke-width:0.679;stroke-linecap:round;stroke-linejoin:round;stroke-miterlimit:10;" d="
				M410.383,346.654c0,0,6.59,2.37,13.79,1.291"/>
			
				<path style="fill:none;stroke:#FFFFFF;stroke-width:0.679;stroke-linecap:round;stroke-linejoin:round;stroke-miterlimit:10;" d="
				M399.452,354.358c0,0-1.561-9.973,2.211-14.885"/>
		</g>
		<path style="fill:#D4EFF0;" d="M371.869,359.809c0,0,32.357-101.014,117.536-106.406c0,0-51.838,38.139-66.5,72.834
			c-12.579,29.766-40.014,71.878-61.003,78.898C361.902,405.135,359.415,387.915,371.869,359.809z"/>
		<g>
			
				<path style="fill:none;stroke:#FFFFFF;stroke-width:0.679;stroke-linecap:round;stroke-linejoin:round;stroke-miterlimit:10;" d="
				M361.902,405.135C372.113,358.486,414,268.279,487.097,254.157"/>
			
				<path style="fill:none;stroke:#FFFFFF;stroke-width:0.679;stroke-linecap:round;stroke-linejoin:round;stroke-miterlimit:10;" d="
				M411.801,303.043c0,0,21.88-11.241,30.85-15.825"/>
			
				<path style="fill:none;stroke:#FFFFFF;stroke-width:0.679;stroke-linecap:round;stroke-linejoin:round;stroke-miterlimit:10;" d="
				M424.824,288.813c0,0,2.385-6.359,5.106-10.575"/>
			
				<path style="fill:none;stroke:#FFFFFF;stroke-width:0.679;stroke-linecap:round;stroke-linejoin:round;stroke-miterlimit:10;" d="
				M442.009,274.238c0,0,11.918-3.04,21.863-5.669"/>
			
				<path style="fill:none;stroke:#FFFFFF;stroke-width:0.679;stroke-linecap:round;stroke-linejoin:round;stroke-miterlimit:10;" d="
				M393.885,328.214c0,0,17.834-8.63,26.694-14.185"/>
			
				<line style="fill:none;stroke:#FFFFFF;stroke-width:0.679;stroke-linecap:round;stroke-linejoin:round;stroke-miterlimit:10;" x1="403.553" y1="313.725" x2="403.732" y2="303.736"/>
			
				<path style="fill:none;stroke:#FFFFFF;stroke-width:0.679;stroke-linecap:round;stroke-linejoin:round;stroke-miterlimit:10;" d="
				M381.636,350.451c0,0,19.51-5.163,29.547-12.756"/>
			
				<path style="fill:none;stroke:#FFFFFF;stroke-width:0.679;stroke-linecap:round;stroke-linejoin:round;stroke-miterlimit:10;" d="
				M386.318,340.883c0,0-0.679-7.434,0.213-11.915"/>
		</g>
	</g>
	<g>
		<path style="fill:#FFA796;" d="M156.637,310.977c0,0-22.06,37.858-22.291,44.565c-0.231,6.707-1.012,18.354,7.588,23.863
			c8.601,5.509,59.481-58.091,59.481-58.091l-5.782-12.489L156.637,310.977z"/>
		<path style="fill:#FFA796;" d="M352.603,323.857c0,0,25.934,66.049,45.118,59.374c19.183-6.675,10.118-53.665-5.048-77.753
			C377.506,281.39,352.603,323.857,352.603,323.857z"/>
		<path style="fill:#7CB58D;" d="M354.96,385.27l0.8,6.64l-155.64-1.99l9.03-73.6l-9.03,15.22c0,0-20.46-3.73-26.58-6.82
			c-4.87-2.45-16.9-13.74-16.9-13.74c7.1-17.45,30.74-44.15,42.05-55.71c2.56-2.61,4.48-4.45,5.45-5.23
			c7.58-6.16,28.31-9.44,28.31-9.44l71.68-3.2c0,0,43.35,8.18,51.25,13.61c1.36,0.93,3.46,3.22,6.01,6.36
			c12.28,15.15,34.98,50.27,34.98,50.27c-20.25,3.21-44.65,19.14-44.65,19.14l-5.6-14.88L354.96,385.27z"/>
		<path style="fill:#6A9E78;" d="M361.39,257.37c-23.25,19.26-54.52,39.35-82.35,37.67c-35.98-2.18-65.39-25.37-80.35-39.77
			c2.56-2.61,4.48-4.45,5.45-5.23c7.58-6.16,28.31-9.44,28.31-9.44l71.68-3.2c0,0,43.35,8.18,51.25,13.61
			C356.74,251.94,358.84,254.23,361.39,257.37z"/>
		<path style="fill:#FFA796;" d="M305.72,258.13c0,0-7.05,37.95-26.68,36.91s-24.73-35.77-24.73-35.77c0.21-0.52,0.4-1.11,0.57-1.75
			c2.18-7.82,2.36-23.52,2.36-23.52l44.58-11.76c-0.23,12.84,2.98,30.94,3.74,35.04C305.66,257.83,305.72,258.13,305.72,258.13z"/>
		<path style="fill:#FF8D77;" d="M305.56,257.28c-7.91,4.02-17.08,7.34-25.54,7.14c-9.79-0.24-18.57-3.5-25.14-6.9
			c2.18-7.82,2.36-23.52,2.36-23.52l44.58-11.76C301.59,235.08,304.8,253.18,305.56,257.28z"/>
		<polygon style="fill:#FFFDFF;" points="309.14,236.28 305.72,290.95 305.72,290.98 274.69,301.29 277.86,294.95 303.43,243.88 
			304.13,237.4 		"/>
		<path style="fill:#DBD2C6;" d="M309.14,236.28l-3.42,54.67c-8.99,3.02-18,4.62-26.68,4.09c-0.4-0.02-0.79-0.05-1.18-0.09
			l25.57-51.07l0.7-6.48L309.14,236.28z"/>
		<polygon style="fill:#DBD2C6;" points="251.951,236.989 279.038,295.04 255.681,287.076 247.333,233.792 		"/>
		<line style="fill:none;stroke:#FFFDFF;stroke-miterlimit:10;" x1="274.686" y1="301.285" x2="274.686" y2="360.338"/>
		<rect x="296.132" y="327.303" style="fill:#FFFDFF;" width="35.436" height="38.152"/>
		<polygon style="fill:#6A9E78;" points="354.96,385.27 338.08,389.38 346.12,311.9 		"/>
	</g>
	<g>
		<path style="fill:#383230;" d="M317.785,185.584c0,0,0.486,11.305-1.119,17.299s-15.635,0-15.635,0l-0.817-17.299H317.785z"/>
		<path style="fill:#383230;" d="M223.509,211.914c0,0,7.252,7.816,14.212,9.208c6.96,1.392,1.178-7.491,1.178-7.491l-4.456-8.035
			L223.509,211.914z"/>
		<path style="fill:#FFD1C9;" d="M292.75,239.1c-3.55,2.11-7.2,3.55-10.62,4.42c0,0-9.02,1.63-20.08-2.09
			c-9.61-3.23-20.77-10.5-28.87-26.4c-4.74-9.31-8-18.84-9.47-27.99c-3.92-24.45,4.94-46.16,32.27-53.48
			c23.63-6.33,39.83,7.27,48.92,25.98c5.35,11.02,8.24,23.82,8.74,35.37C314.66,218.69,304.18,232.33,292.75,239.1z"/>
		<path style="fill:#FFA796;" d="M292.75,239.1c-6.841-24.176,22.034-24.176,7.96-80.18c-0.258-1.027,4.19,0.62,4.19,0.62
			c5.35,11.02,8.24,23.82,8.74,35.37C314.66,218.69,304.18,232.33,292.75,239.1z"/>
		<path style="fill:#FFA796;" d="M262.05,241.43c-9.61-3.23-20.77-10.5-28.87-26.4c-4.74-9.31-8-18.84-9.47-27.99l6.006-2.41
			C229.716,184.63,234.443,213.631,262.05,241.43z"/>
		<path style="fill:#FFA796;" d="M229.716,191.83c0,0,4.562-5.615,16.609-7.243c12.047-1.628,36.779-1.026,46.966-7.935
			c10.187-6.91,14.249-17.009,14.249-17.009l-21.579-8.743l-47.051,12.441l-11.821,17.675L229.716,191.83z"/>
		<path style="fill:#383230;" d="M305.719,165.056c0,0-17.573,12.913-37.449,15.172c-19.877,2.26-38.361,7.274-45.439,18.844
			c0,0-8.979-1.037-13.498-18.979s11.272-75.726,70.683-57.972c0,0,5.631-2.372,14.756,2.541
			c9.125,4.913,26.401,20.393,21.525,43.518c0,0-5.063-0.844-6.764,3.19L305.719,165.056z"/>
		<path style="fill:#FFA796;" d="M309.534,171.371c0,0,1.099-6.12,8.368-5.23c7.269,0.89,9.532,19.728-0.753,23.884
			C309.235,193.222,309.534,171.371,309.534,171.371z"/>
		<path style="fill:#FFA796;" d="M226.918,194.788c0,0-3.539-5.113-9.783-1.288c-6.245,3.825-0.495,21.747,10.593,21.42
			C238.815,214.592,226.918,194.788,226.918,194.788z"/>
		<path style="fill:#383230;" d="M231.523,187.936c0,0-1.529,14.851,2.92,25.696c0,0-6.674-11.818-9.454-24.053L231.523,187.936z"/>
		<path style="fill:#383230;" d="M302.364,164.601c0,0,7.917,16.808,10.353,27.526c0,0-1.705-20.096-4.141-28.135L302.364,164.601z"
			/>
		<path style="fill:none;stroke:#383230;stroke-width:0.75;stroke-miterlimit:10;" d="M210.158,167.019
			c5.607-71.061,70.141-43.997,70.141-43.997s7.307-2.378,16.758,1.585c9.451,3.964,17.024,15.187,18.327,28.317"/>
		<path style="fill:none;stroke:#383230;stroke-width:0.75;stroke-miterlimit:10;" d="M273.546,115.953
			c3.65,2.069,6.47,6.169,6.47,6.169s5.089-2.961,7.28-3.348"/>
		<path style="fill:none;stroke:#383230;stroke-width:0.75;stroke-miterlimit:10;" d="M242.74,184.633
			c0,0,14.497-2.805,27.838-2.617c30.875,0.433,40.427-31.117,40.427-31.117"/>
		<path style="fill:#FF8D77;" d="M313.687,169.601c0,0,3.198,7.633,1.932,11.697c0,0,2.492-0.097,3.21,0.97
			c0.718,1.067,1.688,2.227,1.688,2.227l1.398-2.398c0,0,0.404-5.755-0.493-8.112s-2.114-4.748-3.821-4.685
			C315.894,169.362,313.687,169.601,313.687,169.601z"/>
		<path style="fill:#EF7B6C;" d="M312.899,169.824c0,0,3.771-2.002,6.243-0.288s4.827,9.656,2.41,14.593
			c-2.417,4.937-1.853-3.608-5.332-2.171c-3.479,1.437-0.472,5.119-0.472,5.119s-3.202-2.732-1.224-4.908
			c1.978-2.176,4.228-1.012,4.968,0.296s1.957,1.284,2.142-1.398c0.185-2.682,0.186-7.742-2.557-10.447
			C316.783,168.357,312.899,169.824,312.899,169.824z"/>
		<path style="fill:#FF8D77;" d="M222.847,194.376c0,0,0.686,8.247,3.685,11.268c0,0-2.255,1.064-2.4,2.342
			c-0.145,1.277-0.47,2.755-0.47,2.755l-2.347-1.482c0,0-3.014-4.919-3.306-7.424s-0.316-5.188,1.228-5.92
			C220.78,195.184,222.847,194.376,222.847,194.376z"/>
		<path style="fill:#EF7B6C;" d="M223.65,194.211c0,0-4.27-0.036-5.672,2.626c-1.402,2.662,0.174,10.794,4.597,14.058
			c4.423,3.264-0.021-4.056,3.728-4.387c3.749-0.331,2.782,4.324,2.782,4.324s1.58-3.902-1.179-4.919s-4.218,1.053-4.27,2.555
			c-0.052,1.502-1.144,2.042-2.546-0.251s-3.738-6.783-2.554-10.448C219.527,194.702,223.65,194.211,223.65,194.211z"/>
	</g>
	<g>
		
			<line style="fill:none;stroke:#DB4921;stroke-width:5;stroke-linecap:round;stroke-linejoin:round;stroke-miterlimit:10;" x1="331.934" y1="174.919" x2="303.774" y2="247.083"/>
		
			<line style="fill:none;stroke:#925B92;stroke-width:8;stroke-linecap:round;stroke-linejoin:round;stroke-miterlimit:10;" x1="330.902" y1="177.566" x2="327.823" y2="185.456"/>
		<path style="fill:none;stroke:#925B92;stroke-linecap:round;stroke-linejoin:round;stroke-miterlimit:10;" d="M327.615,176.417
			l-4.722,12.152c0,0-5.17,6.254-6.865,11.022c-1.694,4.768-1.415,9.907-2.031,11.871"/>
		<path style="fill:#FFD1C9;" d="M409.87,373.59c-0.091,0.159-0.18,0.31-0.27,0.46c-0.57,0.92-1.14,1.76-1.72,2.53
			c-15.33,20.44-33.82-12.09-35.6-15.66c-1.85-3.71-30.01-71.28-36.44-84.14c-6.43-12.86-14.21-25.91-14.21-25.91
			s-5.02-1.18-8.96-5.12c-2.02-2.02-4.2-4.15-5.86-5.76l-1.02-0.99c-0.24-0.23-0.45-0.44-0.65-0.62l-1.01-0.98
			c0,0-2.07,1.06-3.88,0.85c-0.79-0.08-1.52-0.41-2.01-1.16c-1.62-2.48-7.2-16.58-3.95-22.62c0,0,0.8-1.18,1.77-1.82
			c0.29-0.19,0.55-0.45,0.77-0.76h0.01c0.39-0.52,0.69-1.16,0.86-1.78c0.07-0.24,0.12-0.48,0.15-0.71c0.15-1.16,1.42-3.44,2.43-4.34
			c0.65-0.58,1.53-1.06,2.08-1.34h0.01c0.3-0.15,0.49-0.23,0.49-0.23s0.25-0.43,0.67-1.05c0.8-1.15,2.2-2.93,3.78-3.78
			c2.44-1.3,4.38-0.86,4.38-0.86s0.4-0.31,1.08-0.72c0.47-0.3,1.09-0.64,1.8-0.96c0.82-0.38,1.75-0.72,2.73-0.9
			c1.62-0.3,2.76,0.17,3.59,0.81c0.71,0.54,1.19,1.2,1.53,1.59c0.75,0.86,9.33,14.58,16.14,31.77c0,0,4.37,7.57,5.59,10.71
			c1.22,3.13,12.36,18.6,12.36,18.6S426.627,344.284,409.87,373.59z"/>
		<path style="fill:#FFA796;" d="M316.01,200.34c-1.03-0.74-4.32-2.54-4.32-2.54s0.4-0.31,1.08-0.72L316.01,200.34z"/>
		<path style="fill:#FFA796;" d="M308.76,205.08l-6.39-1.36c0.3-0.15,0.49-0.23,0.49-0.23s0.25-0.43,0.67-1.05L308.76,205.08z"/>
		<path style="fill:#FFA796;" d="M301.85,211.42l-5.01,0.47c0.39-0.52,0.69-1.16,0.86-1.78L301.85,211.42z"/>
		<path style="fill:#FFA796;" d="M304.13,237.4c0,0-2.07,1.06-3.88,0.85l-2.97-8.37L304.13,237.4z"/>
		<g>
			<path style="fill:#FFD1C9;" d="M260.38,245.07c-1.57,5.11-4.24,10.04-5.28,11.33c-1.79,2.24-5.7-0.24-5.7-0.24
				s-4.83,3.83-8.99,7.27c-4.16,3.44-9.1,4.11-9.1,4.11s0,0.01-0.01,0.02c-0.4,0.54-8.86,12.12-16.06,23.65
				c-0.95,1.53-2.28,3.79-3.89,6.59c-10.84,18.87-34.07,61.93-35.93,64.89c-1.26,2.03-10.91,11.77-21.2,13.82
				c-6.98,1.41-14.26-0.74-19.41-11.23c-12.74-25.95,62.16-93.38,62.16-93.38s12.15-13.89,13.61-16.8c1.47-2.91,6.37-9.81,6.37-9.81
				c8.13-15.94,17.66-28.38,18.46-29.14c0.79-0.76,2.32-2.65,5.15-1.84c1.5,0.43,2.86,1.25,3.81,1.92c0.84,0.59,1.36,1.08,1.36,1.08
				s0.63-0.08,1.58,0.12c0.71,0.16,1.61,0.47,2.56,1.11c1.25,0.83,2.32,2.34,3.01,3.48c0.3,0.51,0.53,0.95,0.67,1.23
				c0.11,0.21,0.17,0.34,0.17,0.34s1.45,0.8,2.34,1.75c0.89,0.96,1.91,3.28,1.95,4.41c0.03,0.95,0.4,2.14,1.05,2.91
				c0.11,0.15,0.24,0.28,0.38,0.39c0.88,0.7,1.53,1.91,1.53,1.91C262.06,237.54,261.51,241.35,260.38,245.07z"/>
			<path style="fill:#FFA796;" d="M260.38,245.07c-1.57,5.11-4.24,10.04-5.28,11.33c-1.79,2.24-5.7-0.24-5.7-0.24
				s7.47-12.92,9.87-12.28C259.72,244,260.08,244.44,260.38,245.07z"/>
			<path style="fill:#FFA796;" d="M259.06,232.66l-4.75,1.42l3.7-4.33C258.04,230.7,258.41,231.89,259.06,232.66z"/>
			<path style="fill:#FFA796;" d="M253.55,223.25l-4.15,2.34l3.48-3.57C253.18,222.53,253.41,222.97,253.55,223.25z"/>
			<polygon style="fill:#FFA796;" points="247.31,217.43 242.73,220.55 244.37,216.23 			"/>
			<path style="fill:#FFA796;" d="M211.35,297.8c-10.84,18.87-34.07,61.93-35.93,64.89c-1.26,2.03-10.91,11.77-21.2,13.82
				C165.93,364.67,192.67,325.75,211.35,297.8z"/>
		</g>
	</g>
	<g>
		<path style="fill:#FE6900;" d="M277.093,204.509c-0.49-0.365-2.089,0.036-2.349,0.59c-0.276,0.587-0.151,9.388,1.635,11.469
			c0.791,0.921,1.854,1.239,2.737,0.979c0.901-0.187,1.688-0.969,1.951-2.155C281.659,212.714,277.613,204.897,277.093,204.509z"/>
		<path style="fill:#813626;" d="M282.479,181.474l0.238,4.155c0,0,7.295-2.182,11.346-2.399c7.208-0.386,10.04,0.441,10.04,0.441
			S301.556,176.957,282.479,181.474z"/>
		<path style="fill:#813626;" d="M256.568,188.01l1.551,3.862c0,0-7.53,1.128-11.289,2.654c-6.688,2.716-8.899,4.669-8.899,4.669
			S237.381,192.036,256.568,188.01z"/>
		<path style="fill:#634023;" d="M286.108,194.86c0,0,3.116,2.935,8.506,1.793c5.39-1.142,6.802-6.247,6.802-6.247
			c-0.218-1.188-5.142,7.151-14.712,3.587L286.108,194.86z"/>
		<path style="fill:#634023;" d="M259.954,201.709c0,0-0.619,4.236-5.552,6.689c-4.934,2.453-9.212-0.671-9.212-0.671
			c-0.567-1.067,8.471,2.41,13.758-6.328L259.954,201.709z"/>
		<path style="fill:#FE6900;" d="M269.901,234.08c0,0,5.557-4.216,10.114-4.2C280.015,229.88,273.174,226.905,269.901,234.08z"/>
		<circle style="fill:none;stroke:#FFA233;stroke-width:1.0965;stroke-miterlimit:10;" cx="253.215" cy="202.743" r="15.445"/>
		<circle style="fill:none;stroke:#FFA233;stroke-width:1.0965;stroke-miterlimit:10;" cx="290.798" cy="190.101" r="15.445"/>
		
			<line style="fill:none;stroke:#FFA233;stroke-width:1.0965;stroke-miterlimit:10;" x1="302.364" y1="179.869" x2="310.087" y2="169.464"/>
		
			<line style="fill:none;stroke:#FFA233;stroke-width:1.0965;stroke-miterlimit:10;" x1="238.91" y1="196.916" x2="225.487" y2="193.449"/>
		<path style="fill:none;stroke:#FFA233;stroke-width:1.0965;stroke-miterlimit:10;" d="M267.522,196.916
			c0,0,2.857-4.571,8.312-2.976"/>
	</g>
	<rect y="360.498" style="fill:#ABCBDE;" width="500" height="139.502"/>
	<g>
		<g>
			<path style="fill:none;" d="M34.648,348.395c-0.77,3.87,0,35.97,0,35.97s0.84,8.35,6.8,8.35l0.001-0.005v-50.853l-0.001-0.002
				C41.448,341.855,35.428,344.535,34.648,348.395z"/>
			<path style="fill:#6A9E78;" d="M163.57,397.73L163.57,397.73v-22.468l0,0c4.056,0,7.344,3.288,7.344,7.344v7.781
				C170.914,394.443,167.626,397.73,163.57,397.73z"/>
			<path style="fill:#0B78A8;" d="M44.356,401.153v22.208c0,0-8.653-0.385-8.653-11.729S44.356,401.153,44.356,401.153z"/>
			<path style="fill:#A5521B;" d="M47.977,368.242h-4.522c-3.513,0-6.361-2.848-6.361-6.361v-32.517
				c0-3.513,2.848-6.361,6.361-6.361h4.522V368.242z"/>
			<path style="fill:#0096EA;" d="M37.061,412.183c0.319,8.644,5.11,9.902,5.11,9.902h131.505v3.126H47.122
				c-7.192,0-13.019-5.837-13.019-13.019v-0.009c0-7.183,5.828-13.019,13.019-13.019h126.554v3.126H42.171
				C42.171,402.29,36.742,403.548,37.061,412.183z"/>
			<rect x="42.171" y="402.29" style="fill:#FFFDFF;" width="127.676" height="19.795"/>
			<path style="fill:#7CB58D;" d="M170.718,386.136c-0.319,8.644-5.11,9.902-5.11,9.902H34.102v3.126h126.554
				c7.192,0,13.019-5.837,13.019-13.019v-0.009c0-7.183-5.828-13.019-13.019-13.019H34.102v3.126h131.505
				C165.607,376.243,171.037,377.5,170.718,386.136z"/>
			
				<rect x="37.931" y="376.243" transform="matrix(-1 -4.489221e-11 4.489221e-11 -1 203.5388 772.2804)" style="fill:#FFFDFF;" width="127.676" height="19.795"/>
			<path style="fill:#EC6B00;" d="M43.899,368.24l-0.001,0.005c-5.279,0-6.023-7.395-6.023-7.395s-0.682-28.43,0-31.858
				c0.691-3.419,6.023-5.792,6.023-5.792l0.001,0.001v-0.004h129.777v-4.877H48.504c-7.953,0-14.401,6.448-14.401,14.401v25.995
				c0,7.953,6.448,14.401,14.401,14.401h125.172v-4.874H43.899V368.24z"/>
			<polygon style="fill:#FFFDFF;" points="169.297,323.197 167.459,323.197 43.899,323.197 43.899,323.201 43.899,368.24 
				43.899,368.242 167.459,368.242 169.297,368.242 			"/>
			
				<line style="fill:none;stroke:#ABCBDE;stroke-width:0.75;stroke-miterlimit:10;" x1="37.931" y1="379.743" x2="165.607" y2="379.743"/>
			
				<line style="fill:none;stroke:#ABCBDE;stroke-width:0.75;stroke-miterlimit:10;" x1="37.931" y1="383.089" x2="165.607" y2="383.089"/>
			
				<line style="fill:none;stroke:#ABCBDE;stroke-width:0.75;stroke-miterlimit:10;" x1="37.931" y1="386.435" x2="165.607" y2="386.435"/>
			
				<line style="fill:none;stroke:#ABCBDE;stroke-width:0.75;stroke-miterlimit:10;" x1="37.931" y1="389.781" x2="165.607" y2="389.781"/>
			
				<line style="fill:none;stroke:#ABCBDE;stroke-width:0.75;stroke-miterlimit:10;" x1="37.931" y1="393.127" x2="165.607" y2="393.127"/>
			
				<line style="fill:none;stroke:#ABCBDE;stroke-width:0.75;stroke-miterlimit:10;" x1="42.171" y1="405.496" x2="169.847" y2="405.496"/>
			
				<line style="fill:none;stroke:#ABCBDE;stroke-width:0.75;stroke-miterlimit:10;" x1="42.171" y1="408.842" x2="169.847" y2="408.842"/>
			
				<line style="fill:none;stroke:#ABCBDE;stroke-width:0.75;stroke-miterlimit:10;" x1="42.171" y1="412.188" x2="169.847" y2="412.188"/>
			
				<line style="fill:none;stroke:#ABCBDE;stroke-width:0.75;stroke-miterlimit:10;" x1="42.171" y1="415.534" x2="169.847" y2="415.534"/>
			
				<line style="fill:none;stroke:#ABCBDE;stroke-width:0.75;stroke-miterlimit:10;" x1="42.171" y1="418.88" x2="169.847" y2="418.88"/>
			
				<line style="fill:none;stroke:#ABCBDE;stroke-width:0.8411;stroke-miterlimit:10;" x1="43.899" y1="326.925" x2="169.297" y2="326.925"/>
			
				<line style="fill:none;stroke:#ABCBDE;stroke-width:0.8411;stroke-miterlimit:10;" x1="43.899" y1="331.209" x2="169.297" y2="331.209"/>
			
				<line style="fill:none;stroke:#ABCBDE;stroke-width:0.8411;stroke-miterlimit:10;" x1="43.899" y1="335.493" x2="169.297" y2="335.493"/>
			
				<line style="fill:none;stroke:#ABCBDE;stroke-width:0.8411;stroke-miterlimit:10;" x1="43.899" y1="339.778" x2="169.297" y2="339.778"/>
			
				<line style="fill:none;stroke:#ABCBDE;stroke-width:0.8411;stroke-miterlimit:10;" x1="43.899" y1="344.062" x2="169.297" y2="344.062"/>
			
				<line style="fill:none;stroke:#ABCBDE;stroke-width:0.8411;stroke-miterlimit:10;" x1="43.899" y1="347.984" x2="169.297" y2="347.984"/>
			
				<line style="fill:none;stroke:#ABCBDE;stroke-width:0.8411;stroke-miterlimit:10;" x1="43.899" y1="352.268" x2="169.297" y2="352.268"/>
			
				<line style="fill:none;stroke:#ABCBDE;stroke-width:0.8411;stroke-miterlimit:10;" x1="43.899" y1="356.553" x2="169.297" y2="356.553"/>
			
				<line style="fill:none;stroke:#ABCBDE;stroke-width:0.8411;stroke-miterlimit:10;" x1="43.899" y1="360.837" x2="169.297" y2="360.837"/>
			
				<line style="fill:none;stroke:#ABCBDE;stroke-width:0.8411;stroke-miterlimit:10;" x1="43.899" y1="365.121" x2="169.297" y2="365.121"/>
		</g>
		<g>
			<g>
				<polygon style="fill:#FFF5EC;" points="225.892,441.704 168.357,480.755 148.205,472.494 115.813,459.197 140.674,445.192 
					181.85,421.999 				"/>
				<polygon style="fill:#E5DDD6;" points="169.567,451.339 148.205,472.494 115.813,459.197 140.674,445.192 				"/>
				<polygon style="fill:#FFF5EC;" points="94.367,440.267 161.337,454.502 127.691,487.825 62.83,469.815 				"/>
				
					<line style="fill:none;stroke:#CEB5AA;stroke-width:0.8174;stroke-linecap:round;stroke-linejoin:round;stroke-miterlimit:10;" x1="102.223" y1="442.907" x2="74.765" y2="469.815"/>
				
					<line style="fill:none;stroke:#CEB5AA;stroke-width:0.8174;stroke-linecap:round;stroke-linejoin:round;stroke-miterlimit:10;" x1="149.746" y1="455.345" x2="122.288" y2="482.254"/>
				
					<line style="fill:none;stroke:#CEB5AA;stroke-width:0.8174;stroke-linecap:round;stroke-linejoin:round;stroke-miterlimit:10;" x1="140.241" y1="452.858" x2="112.783" y2="479.766"/>
				
					<line style="fill:none;stroke:#CEB5AA;stroke-width:0.8174;stroke-linecap:round;stroke-linejoin:round;stroke-miterlimit:10;" x1="130.736" y1="450.37" x2="103.279" y2="477.279"/>
				
					<line style="fill:none;stroke:#CEB5AA;stroke-width:0.8174;stroke-linecap:round;stroke-linejoin:round;stroke-miterlimit:10;" x1="121.232" y1="447.882" x2="93.774" y2="474.791"/>
				
					<line style="fill:none;stroke:#CEB5AA;stroke-width:0.8174;stroke-linecap:round;stroke-linejoin:round;stroke-miterlimit:10;" x1="111.727" y1="445.395" x2="84.269" y2="472.303"/>
				
					<line style="fill:none;stroke:#CEB5AA;stroke-width:0.7591;stroke-linecap:round;stroke-linejoin:round;stroke-miterlimit:10;" x1="181.152" y1="427.42" x2="216.379" y2="443.294"/>
				
					<line style="fill:none;stroke:#CEB5AA;stroke-width:0.7591;stroke-linecap:round;stroke-linejoin:round;stroke-miterlimit:10;" x1="172.66" y1="432.33" x2="207.887" y2="448.204"/>
				
					<line style="fill:none;stroke:#CEB5AA;stroke-width:0.7591;stroke-linecap:round;stroke-linejoin:round;stroke-miterlimit:10;" x1="164.971" y1="437.255" x2="200.199" y2="453.129"/>
			</g>
			<g>
				<polygon style="fill:#FFF5EC;" points="121.133,437.402 116.374,439.168 110.922,441.202 110.922,435.854 116.074,436.638 				
					"/>
				<polygon style="fill:#E5DAD1;" points="121.133,437.402 110.922,441.202 110.922,439.292 112.223,438.528 				"/>
				<polygon style="fill:#F76035;" points="110.926,435.854 108.337,435.854 107.043,438.528 108.337,441.201 110.926,441.201 
					112.22,438.528 				"/>
				<polygon style="fill:#6F8AB0;" points="39.645,447.098 112.22,438.528 110.926,441.201 38.26,449.96 				"/>
				<polygon style="fill:#C5CCD8;" points="38.26,444.235 110.926,435.854 112.22,438.528 39.645,447.098 				"/>
				<polygon style="fill:#6F8AB0;" points="35.488,444.235 108.337,435.854 110.926,435.854 38.26,444.235 				"/>
				<polygon style="fill:#577191;" points="38.26,444.235 35.488,444.235 34.102,447.098 35.488,449.96 38.26,449.96 
					39.645,447.098 				"/>
				<path style="fill:#200100;" d="M121.133,437.402l-4.76,1.765c-0.155-0.33-0.289-0.702-0.351-1.125
					c-0.083-0.568-0.041-1.033,0.052-1.404L121.133,437.402z"/>
			</g>
		</g>
		<g>
			<path style="fill:#E8E8E8;" d="M297.779,350.429c0,0-25.644-21.144-87.398-16.947L207.215,346L297.779,350.429z"/>
			<path style="fill:#FFFDFF;" d="M301.522,351.78c0,0-38.049-24.173-87.422-10.776l-13.618,3.366l-1.373,5.675L301.522,351.78z"/>
			<path style="fill:#E8E8E8;" d="M297.779,350.429c0,0,29.102-35.148,106.231-26.173l-10.539,20.702l-91.949,6.822L297.779,350.429
				z"/>
			<path style="fill:#0096EA;" d="M440.89,427.257l-14.367,12.528v0.011l-8.554,7.458l-47.784,41.685l-93.764-30.779v-1.907
				l86.135,27.056l2.809-20.329l-43.501-9.65l-43.033-9.548l55.185-30.048l34.273-18.661l12.631,1.61l56.475,7.184
				C446.84,409.818,440.89,427.257,440.89,427.257z"/>
			<path style="fill:#564E4D;" d="M424.433,355.09l-47.476,59.376l-82.252,10.221l-2.273,0.286c0,0-45.1-16.131-98.061-9.439
				l0.163-63.756c0,0,49.429-21.711,106.989,0l8.931,7.298L424.433,355.09z"/>
			<path style="fill:#0B78A8;" d="M440.89,427.257l-22.921,19.998c-1.45-7.732-6.099-12.243-6.099-12.243l-90.006,18.319
				l-43.033-9.548l55.185-30.048l7.264-0.959l39.641-16.092l56.475,7.184C446.84,409.818,440.89,427.257,440.89,427.257z"/>
			<polygon style="fill:#2D2929;" points="424.433,355.09 376.957,414.466 294.706,424.687 282.931,408.973 301.524,351.778 
				310.455,359.076 			"/>
			<path style="fill:#FFFDFF;" d="M301.522,351.78c0,0,47.365-20.729,112.229-2.105l4.564,5.632l-105.382,10.793L301.522,351.78z"/>
			<polygon style="fill:#FFFDFF;" points="365.365,462.981 364.965,465.859 362.556,483.31 293.838,461.713 278.774,456.985 
				280.613,443.965 280.692,443.36 285.364,444.445 			"/>
			<polygon style="fill:#E8E8E8;" points="365.365,462.981 364.965,465.859 320.254,455.272 293.838,461.713 278.774,456.985 
				280.613,443.965 285.364,444.445 			"/>
			<path style="fill:#EC6B00;" d="M428.042,426.777l-153.927,27.101l-50.582-37.859v-1.473l3.415-0.662l43.855,32.286l0.64-4.157
				l1.359-8.828l-47.841-35.598l0.103-1.839l154.818-12.072l50.376,27.958C430.257,411.634,432.484,420.587,428.042,426.777z"/>
			<path style="fill:#C45605;" d="M428.042,426.777l-153.927,27.101l-50.582-37.859v-1.473l3.415-0.662l43.855,32.286l0.64-4.157
				l4.191-5.973l128.38-19.13l-24.132-33.234l50.376,27.958C430.257,411.634,432.484,420.587,428.042,426.777z"/>
			<polygon style="fill:#FFFDFF;" points="227.673,399.605 227.147,415.625 271.867,448.543 272.801,433.184 			"/>
			<polygon style="fill:#0B78A8;" points="426.523,439.785 426.523,439.797 417.969,447.255 370.185,488.94 276.421,458.161 
				276.421,456.254 362.556,483.31 365.365,462.981 411.87,435.012 			"/>
		</g>
		<g>
			<path style="fill:#EC6B00;" d="M381.904,246.984l4.39,2.52l54.05,31.06l8.29,4.77c0,0,14.62-27.52-4.36-47.06
				c0,0,7.53-11.18-1.6-17.75c-0.59-0.43-1.25-0.84-1.99-1.22c-11.35-5.89-17.09,3.34-18.67,6.54
				C396.314,220.294,381.904,246.984,381.904,246.984z"/>
			<path style="fill:#EC6B00;" d="M437.874,223.464c0.7,0.44,1.62,0.23,2.07-0.47l1.86-2.94l8.55-13.51l0.01,0.02l11.44,14.14
				v160.46c0,0.83,0.67,1.5,1.5,1.5c0.83,0,1.5-0.67,1.5-1.5v-160.99c0-0.35-0.12-0.68-0.33-0.95l-10.87-13.42l-2.24-2.77
				c-0.3-0.38-0.77-0.58-1.25-0.55c-0.48,0.02-0.92,0.28-1.18,0.69l-11.53,18.22C436.964,222.094,437.174,223.014,437.874,223.464z"
				/>
			<path style="fill:#EC6B00;" d="M432.134,384.454v1.8h51.41v-1.8c0-3.61-2.93-6.54-6.55-6.54h-38.32
				C435.064,377.914,432.134,380.844,432.134,384.454z"/>
			<path style="fill:#C45605;" d="M440.344,280.564l8.29,4.77c0,0,14.62-27.52-4.36-47.06c0,0,7.53-11.18-1.6-17.75l-1.99-1.22
				c0,0,4.06,5.43-2.01,14.17C438.674,233.474,456.994,253.064,440.344,280.564z"/>
			<path style="fill:#C45605;" d="M441.299,237c0,0-5.241-6.626-14.986-9.875c0,0,12.555,4.302,15.891,7.638
				C445.541,238.1,441.299,237,441.299,237z"/>
			<polygon style="fill:#C45605;" points="440.684,219.304 441.804,220.054 450.354,206.544 450.364,206.564 449.914,205.124 			"/>
			<path style="fill:#C45605;" d="M463.814,220.054l-0.33,157.86h1.32v-157.74c0-0.35-0.12-0.68-0.33-0.95l-10.87-13.42
				L463.814,220.054z"/>
			<path style="fill:#C45605;" d="M466.934,377.914c8.81,0.49,8.81,8.34,8.81,8.34h7.8v-1.8c0-3.61-2.93-6.54-6.55-6.54H466.934z"/>
			<path style="fill:#F9AF78;" d="M381.904,246.984l4.39,2.52c4.86-6.88,18.7-23.99,35.72-23.66
				C396.314,220.294,381.904,246.984,381.904,246.984z"/>
		</g>
	</g>
</g>
</svg>
